#!OML:ASF H:\LiuWeirdWalks\Patient Classification 1\Patient 1\Session 1\male.ASF
:FULLY-SPECIFIED
:DEGREES
210
root 0.441282 17.5548 -11.8585 7.83124 4.82912 8.10194
lowerback 8.48573 -3.12896 -11.7295
upperback -0.816441 -5.33913 0.693045
thorax -4.50946 -2.33612 7.93118
lowerneck -16.2982 1.32869 5.17794
upperneck 18.4634 1.64096 -5.32162
head 8.52541 0.579493 -2.45906
rclavicle -4.72114e-015 9.54166e-015
rhumerus -72.6995 -31.9731 -20.1395
rradius 10.5265
rwrist 38.4347
rhand -16.2465 -9.21508
rfingers 7.12502
rthumb 9.96231 -38.9593
lclavicle -4.72114e-015 9.54166e-015
lhumerus -5.04791 -5.93747 83.1971
lradius 43.6535
lwrist 19.2349
lhand -19.2572 -4.79489
lfingers 7.12502
lthumb 7.05686 25.0675
rfemur -44.017 -7.49608 12.0714
rtibia 26.6341
rfoot -12.3312 -16.6271
rtoes -13.5814
lfemur 19.0841 -1.89691 -30.0963
ltibia -7.31528e-014
lfoot -2.80459 7.73819
ltoes -25.4388
211
root 0.426072 17.54 -11.5619 7.60408 5.26324 7.87632
lowerback 8.42686 -3.21898 -11.507
upperback -0.792256 -5.4232 0.768347
thorax -4.44311 -2.38863 7.88758
lowerneck -16.3599 1.26781 5.07144
upperneck 18.6436 1.58914 -5.32882
head 8.59364 0.545951 -2.45271
rclavicle 2.23633e-014 -4.21423e-014
rhumerus -74.8588 -32.1459 -16.6778
rradius 10.3751
rwrist 40.7722
rhand -16.1964 -9.73453
rfingers 7.12502
rthumb 10.0107 -39.4765
lclavicle 2.23633e-014 -4.21423e-014
lhumerus -4.42274 -6.28648 83.0177
lradius 44.6623
lwrist 19.3043
lhand -19.4452 -5.42163
lfingers 7.12502
lthumb 6.87538 24.4467
rfemur -43.3719 -7.36879 12.2732
rtibia 26.6751
rfoot -12.7741 -16.0536
rtoes -14.3229
lfemur 20.2142 -2.16823 -29.5233
ltibia 3.18055e-014
lfoot -1.75159 6.69036
ltoes -27.0638
212
root 0.411188 17.5242 -11.2597 7.32405 5.5896 7.61594
lowerback 8.3787 -3.27117 -11.2538
upperback -0.777342 -5.45608 0.849168
thorax -4.40635 -2.41397 7.83
lowerneck -16.3693 1.21219 4.96036
upperneck 18.8254 1.55573 -5.36973
head 8.65443 0.517729 -2.45484
rclavicle 1.23048e-013 -2.78299e-015
rhumerus -76.3988 -31.9086 -14.4031
rradius 10.3246
rwrist 42.0902
rhand -16.1988 -10.2908
rfingers 7.12502
rthumb 10.0084 -40.0329
lclavicle 1.23048e-013 -2.78299e-015
lhumerus -3.94894 -6.55359 82.8763
lradius 45.6471
lwrist 19.2751
lhand -19.5553 -6.15912
lfingers 7.12502
lthumb 6.76912 23.7127
rfemur -42.6411 -7.36988 12.6599
rtibia 27.1194
rfoot -13.0218 -15.1485
rtoes -14.7644
lfemur 21.368 -2.33834 -28.9091
ltibia 6.67916e-014
lfoot -0.473852 5.49615
ltoes -28.6773
213
root 0.397101 17.5078 -10.9527 7.00744 5.80842 7.36935
lowerback 8.33829 -3.28539 -11.0099
upperback -0.767401 -5.44156 0.919692
thorax -4.38983 -2.414 7.76369
lowerneck -16.3743 1.16265 4.84429
upperneck 19.0546 1.53833 -5.42967
head 8.73174 0.494476 -2.46148
rclavicle -5.09883e-014 2.22639e-014
rhumerus -77.3468 -31.3797 -13.2624
rradius 10.347
rwrist 42.4503
rhand -16.2333 -10.8387
rfingers 7.12502
rthumb 9.9751 -40.5823
lclavicle -5.09883e-014 2.22639e-014
lhumerus -3.61008 -6.75701 82.7672
lradius 46.6163
lwrist 19.217
lhand -19.6401 -6.93704
lfingers 7.12502
lthumb 6.68725 22.9374
rfemur -41.8218 -7.38894 13.083
rtibia 27.8522
rfoot -13.1329 -14.0406
rtoes -15.0027
lfemur 19.5646 -2.37073 -28.2613
ltibia 5.80858
lfoot -1.63968 5.05735
ltoes -30.2268
214
root 0.383849 17.4929 -10.6413 6.66969 5.92989 7.1686
lowerback 8.30388 -3.2677 -10.8111
upperback -0.776919 -5.39195 0.977886
thorax -4.4022 -2.39285 7.70825
lowerneck -16.352 1.13018 4.74763
upperneck 19.317 1.55263 -5.53641
head 8.81794 0.482577 -2.48409
rclavicle 1.35671e-014 2.38542e-014
rhumerus -77.8434 -30.6616 -12.996
rradius 10.4169
rwrist 42.0761
rhand -16.2965 -11.3183
rfingers 7.12502
rthumb 9.91409 -41.0648
lclavicle 1.35671e-014 2.38542e-014
lhumerus -3.4413 -6.91236 82.6954
lradius 47.5775
lwrist 19.1966
lhand -19.7158 -7.75022
lfingers 7.12502
lthumb 6.61419 22.1265
rfemur -40.9364 -7.30607 13.4146
rtibia 28.7572
rfoot -13.1272 -12.89
rtoes -15.2652
lfemur 19.1395 -2.32657 -27.6975
ltibia 8.85677
lfoot -1.19966 3.96299
ltoes -31.7206
215
root 0.370843 17.4827 -10.3273 6.33041 5.98064 7.0142
lowerback 8.2812 -3.22508 -10.6563
upperback -0.806746 -5.31691 1.02333
thorax -4.44551 -2.35524 7.66387
lowerneck -16.3631 1.10543 4.66499
upperneck 19.6151 1.58278 -5.67922
head 8.92408 0.474405 -2.52039
rclavicle 5.42682e-014 -1.59028e-015
rhumerus -77.9762 -29.8179 -13.4711
rradius 10.5222
rwrist 41.0906
rhand -16.3239 -11.6477
rfingers 7.12502
rthumb 9.88765 -41.3956
lclavicle 5.42682e-014 -1.59028e-015
lhumerus -3.42785 -7.0266 82.6619
lradius 48.5254
lwrist 19.2436
lhand -19.8616 -8.61583
lfingers 7.12502
lthumb 6.47344 21.2652
rfemur -40.0409 -7.04041 13.5996
rtibia 29.7294
rfoot -12.8484 -11.9261
rtoes -15.5276
lfemur 18.8282 -2.22073 -27.1914
ltibia 11.5267
lfoot -0.16256 2.60903
ltoes -33.0677
216
root 0.358238 17.4803 -10.0125 5.99886 5.99278 6.85372
lowerback 8.27872 -3.16713 -10.4897
upperback -0.864316 -5.22409 1.07287
thorax -4.53385 -2.30512 7.61891
lowerneck -16.3328 1.10461 4.66129
upperneck 19.8999 1.64622 -5.90421
head 9.02171 0.47911 -2.59411
rclavicle 8.49804e-014 3.26007e-014
rhumerus -78.0868 -29.0374 -13.9791
rradius 10.6092
rwrist 40.1095
rhand -16.328 -11.8051
rfingers 7.12502
rthumb 9.88368 -41.5531
lclavicle 8.49804e-014 3.26007e-014
lhumerus -3.58674 -7.10286 82.677
lradius 49.4575
lwrist 19.4078
lhand -20.0818 -9.46789
lfingers 7.12502
lthumb 6.26087 20.4196
rfemur -39.1822 -6.58341 13.6904
rtibia 30.6926
rfoot -12.1771 -11.3158
rtoes -15.6857
lfemur 18.4441 -2.34553 -26.7744
ltibia 14.1069
lfoot 1.53318 1.32858
ltoes -34.1864
217
root 0.346643 17.4878 -9.69851 5.68306 5.97703 6.60084
lowerback 8.28174 -3.10013 -10.2122
upperback -0.942258 -5.10855 1.14402
thorax -4.65817 -2.24361 7.53408
lowerneck -16.2728 1.12399 4.71725
upperneck 20.1414 1.73265 -6.17271
head 9.10169 0.494697 -2.68963
rclavicle -7.71285e-014 3.97569e-015
rhumerus -78.2054 -28.3677 -14.4443
rradius 10.6712
rwrist 39.1914
rhand -16.2827 -11.798
rfingers 7.12502
rthumb 9.92746 -41.544
lclavicle -7.71285e-014 3.97569e-015
lhumerus -3.89651 -7.132 82.7455
lradius 50.3492
lwrist 19.695
lhand -20.3921 -10.3103
lfingers 7.12502
lthumb 5.96125 19.5859
rfemur -38.3944 -5.97193 13.8127
rtibia 31.5993
rfoot -11.0715 -11.1717
rtoes -15.6241
lfemur 17.8666 -2.43701 -26.2605
ltibia 16.7446
lfoot 3.8309 -0.0532408
ltoes -34.8548
218
root 0.336311 17.5047 -9.3862 5.38074 5.94058 6.18675
lowerback 8.27853 -3.03126 -9.75848
upperback -1.02168 -4.96955 1.25567
thorax -4.79435 -2.17459 7.39041
lowerneck -16.2071 1.15129 4.81447
upperneck 20.3481 1.82423 -6.4633
head 9.16996 0.513535 -2.79894
rclavicle 6.11263e-014 2.78299e-015
rhumerus -78.3895 -27.8937 -14.6753
rradius 10.6846
rwrist 38.5318
rhand -16.1822 -11.5853
rfingers 7.12502
rthumb 10.0244 -41.3265
lclavicle 6.11263e-014 2.78299e-015
lhumerus -4.31465 -7.09389 82.8609
lradius 51.1665
lwrist 20.083
lhand -20.7699 -11.1354
lfingers 7.12502
lthumb 5.59649 18.7707
rfemur -37.6702 -5.28662 14.0968
rtibia 32.4361
rfoot -9.56912 -11.5346
rtoes -15.2505
lfemur 17.0365 -2.49981 -25.5763
ltibia 19.5294
lfoot 6.65884 -1.42583
ltoes -34.9895
